HIERARCHY
ROOT Hips
{
	OFFSET 0.00 0.00 0.00
	CHANNELS 6 Xposition Yposition Zposition Xrotation Yrotation Zrotation
	JOINT Spine
	{
		OFFSET 0.00000 1.15266 1.72900
		CHANNELS 3 Xrotation Yrotation Zrotation
		JOINT Spine1
		{
			OFFSET 0.00000 0.40032 2.27031
			CHANNELS 3 Xrotation Yrotation Zrotation
			JOINT Spine2
			{
				OFFSET 0.00000 0.20092 2.29656
				CHANNELS 3 Xrotation Yrotation Zrotation
				JOINT Spine3
				{
					OFFSET 0.00000 0.00000 2.30533
					CHANNELS 3 Xrotation Yrotation Zrotation
					JOINT Neck
					{
						OFFSET 0.00000 -0.86449 6.05149
						CHANNELS 3 Xrotation Yrotation Zrotation
						JOINT Head
						{
							OFFSET 0.00000 -0.55043 3.12167
							CHANNELS 3 Xrotation Yrotation Zrotation
							End Site
							{
								OFFSET 0.00000 0.00000 3.73175
							}
						}
					}
					JOINT RightShoulder
					{
						OFFSET -0.78828 -1.31380 4.25672
						CHANNELS 3 Xrotation Yrotation Zrotation
						JOINT RightArm
						{
							OFFSET -3.91513 0.00000 0.00000
							CHANNELS 3 Xrotation Yrotation Zrotation
							JOINT RightForeArm
							{
								OFFSET -6.91491 0.00000 0.00000
								CHANNELS 3 Xrotation Yrotation Zrotation
								JOINT RightHand
								{
									OFFSET -6.09622 0.00000 0.00000
									CHANNELS 3 Xrotation Yrotation Zrotation
									JOINT RightHandEnd
									{
										OFFSET -1.74995 0.00000 0.00000
										CHANNELS 3 Xrotation Yrotation Zrotation
										End Site
										{
											OFFSET -1.74995 0.00000 0.00000
										}
									}
									JOINT RightHandThumb1
									{
										OFFSET -0.69998 -1.16663 -0.46665
										CHANNELS 3 Yrotation Xrotation Zrotation
										End Site
										{
											OFFSET -1.69032 -0.45292 0.00000
										}
									}
								}
							}
						}
					}
					JOINT LeftShoulder
					{
						OFFSET 0.78828 -1.31380 4.25672
						CHANNELS 3 Xrotation Yrotation Zrotation
						JOINT LeftArm
						{
							OFFSET 3.91513 0.00000 0.00000
							CHANNELS 3 Xrotation Yrotation Zrotation
							JOINT LeftForeArm
							{
								OFFSET 6.91491 0.00000 0.00000
								CHANNELS 3 Xrotation Yrotation Zrotation
								JOINT LeftHand
								{
									OFFSET 6.09622 0.00000 0.00000
									CHANNELS 3 Xrotation Yrotation Zrotation
									JOINT LeftHandEnd
									{
										OFFSET 1.74995 0.00000 0.00000
										CHANNELS 3 Xrotation Yrotation Zrotation
										End Site
										{
											OFFSET 1.74995 0.00000 0.00000
										}
									}
									JOINT LeftHandThumb1
									{
										OFFSET 0.69998 -1.16663 -0.46665
										CHANNELS 3 Yrotation Xrotation Zrotation
										End Site
										{
											OFFSET 1.69032 -0.45292 0.00000
										}
									}
								}
							}
						}
					}
				}
			}
		}
	}
	JOINT RightUpLeg
	{
		OFFSET -2.33857 0.00000 -0.68318
		CHANNELS 3 Xrotation Yrotation Zrotation
		JOINT RightLeg
		{
			OFFSET 0.00000 0.00000 -10.74496
			CHANNELS 3 Xrotation Yrotation Zrotation
			JOINT RightFoot
			{
				OFFSET 0.00000 0.00000 -10.93085
				CHANNELS 3 Xrotation Yrotation Zrotation
				JOINT RightToeBase
				{
					OFFSET 0.00000 -4.08727 -1.48765
					CHANNELS 3 Xrotation Yrotation Zrotation
					End Site
					{
						OFFSET 0.00000 -1.89187 -0.00000
					}
				}
			}
		}
	}
	JOINT LeftUpLeg
	{
		OFFSET 2.33857 0.00000 -0.68318
		CHANNELS 3 Xrotation Yrotation Zrotation
		JOINT LeftLeg
		{
			OFFSET 0.00000 0.00000 -10.74496
			CHANNELS 3 Xrotation Yrotation Zrotation
			JOINT LeftFoot
			{
				OFFSET 0.00000 0.00000 -10.93085
				CHANNELS 3 Xrotation Yrotation Zrotation
				JOINT LeftToeBase
				{
					OFFSET 0.00000 -4.08727 -1.48765
					CHANNELS 3 Xrotation Yrotation Zrotation
					End Site
					{
						OFFSET 0.00000 -1.89187 -0.00000
					}
				}
			}
		}
	}
}
MOTION
Frames: 14
Frame Time:	0.0333333
 -1.2344 -0.5247 25.0481 -6.3389 1.5268 158.9231 -0.9467 -0.8818 0.6613 -0.4314 -2.9862 0.0497 0.9160 3.3771 10.6242 0.0771 0.8801 1.5412 -6.2439 3.6810 -11.9512 3.7770 0.7580 -17.8822 -10.8288 5.0991 -9.2866 -4.1143 2.9629 8.3573 0.0000 0.0000 14.0990 -6.3276 1.2965 -11.5775 0.0000 0.0000 0.0000 -0.0000 -0.0000 -0.0000 -9.2830 -2.0240 6.9341 -19.4054 1.9126 -14.5823 -0.0000 0.0000 4.8586 2.9106 7.4251 7.6107 0.0000 0.0000 -0.0000 0.0000 0.0000 -0.0000 -8.3456 -2.7124 -6.1466 2.3003 0.0000 0.0000 -0.5011 0.0225 25.7021 4.7461 0.0000 0.0000 -4.7722 -0.8451 8.3983 0.2919 0.0000 0.0000 -5.3589 2.0117 3.7720 -2.8200 0.0000 -0.0000
 -1.2302 -0.5463 25.0488 -6.3498 1.5528 158.9254 -0.9193 -0.8773 0.6525 -0.4300 -2.9738 0.0511 0.9141 3.3585 10.6080 0.0753 0.8755 1.5396 -6.1961 3.7338 -11.9571 3.7707 0.7710 -17.8708 -10.7848 5.1834 -9.2519 -4.0837 2.8641 8.2630 0.0000 0.0000 14.1275 -6.3253 1.3580 -11.5707 -0.0000 0.0000 -0.0000 0.0000 -0.0000 0.0000 -9.2488 -2.1176 6.9005 -19.3092 1.8673 -14.4473 -0.0000 0.0000 4.8182 2.8606 7.3878 7.5985 0.0000 -0.0000 -0.0000 -0.0000 0.0000 0.0000 -8.4353 -2.7155 -6.1436 2.3436 0.0000 0.0000 -0.4562 0.0254 25.6905 4.6910 0.0000 0.0000 -4.8855 -0.8564 8.4325 0.3829 0.0000 0.0000 -5.3661 1.9014 3.7395 -2.6940 0.0000 -0.0000
 -1.2228 -0.5786 25.0488 -6.3587 1.5831 158.9308 -0.8721 -0.8877 0.6407 -0.4153 -2.9542 0.0530 0.8980 3.3227 10.5908 0.0716 0.8735 1.5347 -6.0857 3.8315 -11.9569 3.7467 0.7900 -17.8370 -10.7323 5.3190 -9.1950 -4.0057 2.7075 8.1318 0.0000 0.0000 14.1090 -6.3637 1.3903 -11.5623 0.0000 0.0000 -0.0000 0.0000 -0.0000 0.0000 -9.2143 -2.2694 6.8489 -19.1910 1.8310 -14.2467 -0.0000 0.0000 4.7368 2.7827 7.3434 7.5619 0.0000 0.0000 0.0000 0.0000 0.0000 0.0000 -8.5631 -2.7275 -6.1406 2.4205 0.0000 0.0000 -0.3966 0.0172 25.6765 4.6020 0.0000 0.0000 -5.0524 -0.8870 8.4969 0.5387 0.0000 0.0000 -5.3795 1.8531 3.6704 -2.6186 0.0000 -0.0000
 -1.2142 -0.6084 25.0484 -6.3456 1.6006 158.9579 -0.7976 -0.9177 0.6251 -0.4003 -2.9181 0.0592 0.8702 3.2558 10.5669 0.0614 0.8802 1.5247 -5.9519 3.9502 -11.9398 3.7687 0.8273 -17.7711 -10.6991 5.4642 -9.1337 -3.9227 2.5350 7.9997 0.0000 0.0000 14.0622 -6.4289 1.3203 -11.5425 -0.0000 0.0000 -0.0000 -0.0000 -0.0000 0.0000 -9.1811 -2.4167 6.8181 -19.1515 1.8549 -14.0926 -0.0000 0.0000 4.6770 2.8434 7.2991 7.4913 -0.0000 -0.0000 0.0000 0.0000 -0.0000 -0.0000 -8.6520 -2.7437 -6.1583 2.4871 0.0000 0.0000 -0.3517 0.0284 25.6591 4.5235 0.0000 0.0000 -5.1837 -0.9193 8.5545 0.6796 0.0000 0.0000 -5.3923 1.8005 3.5917 -2.5044 0.0000 -0.0000
 -1.2061 -0.6313 25.0483 -6.3441 1.6247 159.0239 -0.7444 -0.9347 0.6160 -0.3825 -2.9054 0.0578 0.8293 3.1958 10.5220 0.0479 0.8811 1.5116 -5.8387 4.0680 -11.9169 3.8781 0.8689 -17.6856 -10.6806 5.5842 -9.0825 -3.8475 2.3846 7.8770 0.0000 0.0000 14.0333 -6.4989 1.1811 -11.4961 -0.0000 0.0000 -0.0000 0.0000 -0.0000 -0.0000 -9.1447 -2.5375 6.8137 -19.1814 1.9401 -14.0205 -0.0000 0.0000 4.6759 2.9291 7.3270 7.4081 0.0000 -0.0000 -0.0000 -0.0000 -0.0000 0.0000 -8.7244 -2.7515 -6.1937 2.5250 0.0000 0.0000 -0.3339 0.0902 25.6164 4.4731 0.0000 0.0000 -5.2844 -0.9323 8.5824 0.7479 0.0000 0.0000 -5.3741 1.7155 3.5139 -2.3572 0.0000 -0.0000
 -1.1971 -0.6505 25.0484 -6.3605 1.6482 159.1355 -0.7100 -0.9468 0.6043 -0.3748 -2.8954 0.0543 0.7967 3.1244 10.4419 0.0363 0.8803 1.4932 -5.7338 4.1761 -11.9066 4.0213 0.8838 -17.6119 -10.6555 5.6739 -9.0371 -3.7620 2.2710 7.7788 0.0000 0.0000 14.0017 -6.5724 1.0471 -11.4189 -0.0000 0.0000 -0.0000 -0.0000 -0.0000 0.0000 -9.1275 -2.6745 6.7993 -19.1828 2.0575 -13.9532 -0.0000 0.0000 4.6895 2.8230 7.4440 7.3580 -0.0000 -0.0000 0.0000 -0.0000 0.0000 0.0000 -8.7844 -2.7625 -6.2468 2.5252 0.0000 0.0000 -0.3208 0.1777 25.5470 4.4336 0.0000 0.0000 -5.3704 -0.9455 8.5625 0.7634 0.0000 0.0000 -5.3199 1.7129 3.4392 -2.3399 0.0000 -0.0000
 -1.1863 -0.6681 25.0481 -6.3810 1.6674 159.2605 -0.6820 -0.9667 0.5937 -0.3625 -2.8861 0.0488 0.7615 3.0564 10.3434 0.0288 0.8781 1.4706 -5.6010 4.2700 -11.9212 4.1125 0.8773 -17.5640 -10.6343 5.7332 -8.9967 -3.7015 2.2002 7.7365 0.0000 0.0000 13.9457 -6.6383 0.9366 -11.3392 -0.0000 -0.0000 0.0000 -0.0000 -0.0000 0.0000 -9.1567 -2.8358 6.7557 -19.1291 2.1640 -13.8530 -0.0000 0.0000 4.6753 2.6218 7.5243 7.3455 0.0000 0.0000 0.0000 0.0000 -0.0000 -0.0000 -8.8284 -2.7783 -6.3048 2.5083 0.0000 0.0000 -0.3089 0.2415 25.4777 4.4090 0.0000 0.0000 -5.4426 -0.9674 8.5252 0.7612 0.0000 0.0000 -5.2576 1.8013 3.3621 -2.4220 0.0000 -0.0000
 -1.1740 -0.6816 25.0479 -6.3804 1.6849 159.3572 -0.6372 -0.9950 0.5828 -0.3431 -2.8707 0.0457 0.7128 2.9908 10.2545 0.0221 0.8754 1.4522 -5.4415 4.3561 -11.9534 4.1419 0.8944 -17.5310 -10.6321 5.7655 -8.9626 -3.7354 2.1800 7.7419 0.0000 0.0000 13.9418 -6.6570 0.8624 -11.2798 0.0000 -0.0000 0.0000 0.0000 -0.0000 -0.0000 -9.2171 -2.9750 6.7043 -19.0771 2.2260 -13.7644 -0.0000 0.0000 4.6441 2.5780 7.4535 7.3269 0.0000 0.0000 -0.0000 0.0000 0.0000 0.0000 -8.8352 -2.7899 -6.3571 2.4864 0.0000 0.0000 -0.3070 0.2778 25.4375 4.4218 0.0000 0.0000 -5.4732 -0.9831 8.4990 0.7397 0.0000 0.0000 -5.2188 1.7925 3.2989 -2.3354 0.0000 -0.0000
 -1.1606 -0.6915 25.0484 -6.3758 1.7168 159.3981 -0.5903 -1.0144 0.5751 -0.3239 -2.8557 0.0453 0.6578 2.9227 10.1901 0.0126 0.8682 1.4429 -5.2947 4.4526 -11.9823 4.1572 0.9560 -17.4954 -10.6206 5.7817 -8.9339 -3.8455 2.2209 7.7652 0.0000 0.0000 14.0711 -6.6315 0.8752 -11.2194 -0.0000 -0.0000 -0.0000 -0.0000 -0.0000 0.0000 -9.2559 -3.0677 6.6791 -19.0590 2.2328 -13.7326 -0.0000 0.0000 4.6248 2.6602 7.3126 7.2752 0.0000 -0.0000 0.0000 0.0000 0.0000 0.0000 -8.8456 -2.7948 -6.3799 2.4783 0.0000 0.0000 -0.3145 0.3247 25.4211 4.4581 0.0000 0.0000 -5.4887 -0.9857 8.4897 0.7055 0.0000 0.0000 -5.1999 1.6473 3.2742 -2.0637 0.0000 -0.0000
 -1.1452 -0.7010 25.0489 -6.3861 1.7532 159.3881 -0.5485 -1.0327 0.5688 -0.3097 -2.8472 0.0439 0.6091 2.8542 10.1529 -0.0009 0.8564 1.4424 -5.1826 4.5717 -11.9959 4.1805 1.0263 -17.4497 -10.5672 5.8141 -8.9062 -3.9376 2.3005 7.7999 0.0000 0.0000 14.2897 -6.6122 0.9908 -11.1390 0.0000 0.0000 0.0000 -0.0000 -0.0000 0.0000 -9.2363 -3.1524 6.6785 -19.0630 2.2045 -13.7465 -0.0000 0.0000 4.6223 2.6763 7.2584 7.2123 -0.0000 -0.0000 0.0000 0.0000 -0.0000 -0.0000 -8.8888 -2.8137 -6.3738 2.4917 0.0000 0.0000 -0.3117 0.3875 25.4216 4.4721 0.0000 0.0000 -5.5251 -1.0036 8.4916 0.7038 0.0000 0.0000 -5.1813 1.6143 3.2880 -1.9625 0.0000 -0.0000
 -1.1271 -0.7123 25.0485 -6.4287 1.7833 159.3552 -0.5245 -1.0681 0.5630 -0.3023 -2.8353 0.0469 0.5700 2.7847 10.1290 -0.0134 0.8462 1.4446 -5.1013 4.7054 -11.9969 4.2044 1.0597 -17.3948 -10.5003 5.8929 -8.8725 -3.9855 2.3636 7.8554 0.0000 0.0000 14.4887 -6.6041 1.1328 -11.0697 0.0000 -0.0000 -0.0000 0.0000 -0.0000 -0.0000 -9.1870 -3.2803 6.6583 -19.0661 2.1783 -13.7475 -0.0000 0.0000 4.6073 2.6574 7.2821 7.1646 0.0000 -0.0000 -0.0000 0.0000 0.0000 0.0000 -8.9725 -2.8589 -6.3690 2.5196 0.0000 0.0000 -0.2881 0.4255 25.4491 4.4601 0.0000 0.0000 -5.6087 -1.0567 8.5192 0.7596 0.0000 0.0000 -5.1562 1.8291 3.3022 -2.1929 0.0000 -0.0000
 -1.1051 -0.7232 25.0481 -6.4788 1.8021 159.3349 -0.5009 -1.1120 0.5575 -0.2984 -2.8228 0.0466 0.5286 2.7310 10.1109 -0.0233 0.8417 1.4430 -5.0402 4.8107 -11.9891 4.2467 1.0622 -17.3364 -10.4592 5.9963 -8.8307 -4.0493 2.3832 7.9251 0.0000 0.0000 14.6232 -6.5448 1.2371 -11.0481 0.0000 0.0000 -0.0000 0.0000 -0.0000 -0.0000 -9.1352 -3.4612 6.5966 -19.0544 2.1699 -13.7271 -0.0000 0.0000 4.5660 2.7202 7.2688 7.1043 -0.0000 0.0000 0.0000 0.0000 -0.0000 0.0000 -9.0355 -2.9218 -6.3983 2.5167 0.0000 0.0000 -0.2432 0.4220 25.5065 4.4609 0.0000 0.0000 -5.6874 -1.1292 8.5619 0.8121 0.0000 0.0000 -5.1254 2.0967 3.2933 -2.4671 0.0000 -0.0000
 -1.0798 -0.7350 25.0484 -6.5622 1.8410 159.3515 -0.5042 -1.1342 0.5517 -0.3051 -2.8055 0.0503 0.4802 2.6908 10.0721 -0.0341 0.8394 1.4385 -5.0016 4.8611 -11.9754 4.3292 1.0638 -17.2757 -10.4331 6.0605 -8.7942 -4.1495 2.4095 8.0070 0.0000 0.0000 14.7029 -6.4246 1.3300 -11.0421 -0.0000 -0.0000 -0.0000 -0.0000 -0.0000 0.0000 -9.0813 -3.6497 6.5204 -19.0136 2.1558 -13.7306 -0.0000 0.0000 4.5042 2.7669 7.1958 6.9993 -0.0000 0.0000 0.0000 -0.0000 0.0000 0.0000 -9.1158 -2.9832 -6.4391 2.4768 0.0000 0.0000 -0.1860 0.4249 25.5401 4.4737 0.0000 0.0000 -5.8029 -1.1977 8.6109 0.8429 0.0000 0.0000 -5.0989 2.2417 3.2372 -2.5338 0.0000 -0.0000
 -1.0516 -0.7478 25.0489 -6.6505 1.8938 159.4179 -0.5053 -1.1224 0.5495 -0.3135 -2.7874 0.0507 0.4241 2.6562 10.0012 -0.0512 0.8349 1.4287 -4.9749 4.8650 -11.9553 4.4304 1.0800 -17.2167 -10.3883 6.0757 -8.7692 -4.2382 2.4719 8.0948 0.0000 0.0000 14.7422 -6.3279 1.4525 -10.9938 0.0000 -0.0000 0.0000 -0.0000 -0.0000 0.0000 -9.0212 -3.8284 6.4684 -18.9601 2.1599 -13.7886 -0.0000 0.0000 4.4376 2.6849 7.0949 6.8890 0.0000 0.0000 0.0000 0.0000 0.0000 0.0000 -9.1965 -3.0386 -6.4902 2.4183 0.0000 0.0000 -0.1313 0.4821 25.5236 4.4497 0.0000 0.0000 -5.9544 -1.2643 8.6476 0.9084 0.0000 0.0000 -5.0932 2.3658 3.1334 -2.5114 0.0000 -0.0000
